<svg fill="none" height="512" viewBox="0 0 24 24" width="512" xmlns="http://www.w3.org/2000/svg"><path d="m6 1.25c-1.51878 0-2.75 1.23122-2.75 2.75v16c0 1.5188 1.23122 2.75 2.75 2.75h12c1.5188 0 2.75-1.2312 2.75-2.75v-11.84963c0-.58119-.1841-1.14744-.526-1.61747l-3.0184-4.15037c-.5175-.71155-1.3442-1.13253-2.224-1.13253z" fill="#eceff1"/><path d="m20.75 8.75001v-.59963c0-.5812-.1841-1.14745-.526-1.61748l-3.0184-4.15036c-.4645-.63866-1.1781-1.04323-1.9556-1.11942v6.73689c0 .41421.3358.75.75.75z" fill="#ffc107"/><g clip-rule="evenodd" fill-rule="evenodd"><path d="m12 1.25v21.5h-6c-1.51878 0-2.75-1.2312-2.75-2.75v-16c0-1.51878 1.23122-2.75 2.75-2.75z" fill="#e5e6e8"/><path d="m12.2785 8.30365c-.231-.09243-.4929-.06422-.699.0753-.2061.13953-.3295.37219-.3295.62105v4.378c-.2346-.0829-.487-.128-.75-.128-1.24264 0-2.25 1.0074-2.25 2.25s1.00736 2.25 2.25 2.25c1.2426 0 2.25-1.0074 2.25-2.25v-5.3922l1.9715.7886c.3845.1538.821-.0333.9749-.4179.1538-.3845-.0333-.82102-.4179-.97485z" fill="#486472"/><path d="m12 8.25v8.9271c-.3981.3563-.9237.5729-1.5.5729-1.24264 0-2.25-1.0074-2.25-2.25s1.00736-2.25 2.25-2.25c.263 0 .5154.0451.75.128v-4.378c0-.24886.1234-.48152.3295-.62105.1259-.08524.2727-.12894.4205-.12895z" fill="#354d58"/></g></svg>